  0
SECTION
  2
ENTITIES
  0
POLYLINE
  8
0
  66
1
  70
0
  62
7
  0
VERTEX
  8
0
  10
91.438426
  20
160.746745
  42
0.078620
  0
VERTEX
  8
0
  10
91.110972
  20
160.673293
  42
0.193392
  0
VERTEX
  8
0
  10
91.008981
  20
160.576425
  42
0.159684
  0
VERTEX
  8
0
  10
90.993865
  20
160.442493
  42
0.061086
  0
VERTEX
  8
0
  10
91.104413
  20
160.115833
  0
SEQEND
  0
POLYLINE
  8
0
  66
1
  70
0
  62
7
  0
VERTEX
  8
0
  10
91.104413
  20
160.115833
  42
0.085904
  0
VERTEX
  8
0
  10
90.997100
  20
159.726929
  42
0.062830
  0
VERTEX
  8
0
  10
91.012295
  20
159.177418
  0
VERTEX
  8
0
  10
91.090248
  20
158.720139
  42
-0.023638
  0
VERTEX
  8
0
  10
91.117220
  20
158.452547
  42
-0.032180
  0
VERTEX
  8
0
  10
91.115017
  20
158.254908
  0
SEQEND
  0
POLYLINE
  8
0
  66
1
  70
0
  62
7
  0
VERTEX
  8
0
  10
91.115017
  20
158.254908
  42
-0.084599
  0
VERTEX
  8
0
  10
90.992551
  20
157.823141
  42
-0.099287
  0
VERTEX
  8
0
  10
90.762614
  20
157.516304
  42
-0.086097
  0
VERTEX
  8
0
  10
90.470833
  20
157.334185
  42
-0.078744
  0
VERTEX
  8
0
  10
90.105028
  20
157.248895
  42
-0.148748
  0
VERTEX
  8
0
  10
89.373055
  20
157.415219
  42
-0.184154
  0
VERTEX
  8
0
  10
88.983701
  20
157.889085
  0
SEQEND
  0
POLYLINE
  8
0
  66
1
  70
0
  62
7
  0
VERTEX
  8
0
  10
88.983701
  20
157.889085
  42
0.033544
  0
VERTEX
  8
0
  10
88.687815
  20
158.599192
  42
0.064819
  0
VERTEX
  8
0
  10
88.465204
  20
158.930720
  42
0.075980
  0
VERTEX
  8
0
  10
88.235438
  20
159.123601
  42
0.059123
  0
VERTEX
  8
0
  10
87.885570
  20
159.283454
  42
-0.005833
  0
VERTEX
  8
0
  10
87.236635
  20
159.500039
  42
-0.024625
  0
VERTEX
  8
0
  10
87.086244
  20
159.560637
  42
-0.043307
  0
VERTEX
  8
0
  10
86.547499
  20
159.868270
  42
-0.032908
  0
VERTEX
  8
0
  10
85.908669
  20
160.375620
  0
SEQEND
  0
POLYLINE
  8
0
  66
1
  70
0
  62
7
  0
VERTEX
  8
0
  10
85.908669
  20
160.375620
  42
0.067324
  0
VERTEX
  8
0
  10
85.602914
  20
160.587362
  42
0.072199
  0
VERTEX
  8
0
  10
85.274277
  20
160.698863
  42
0.058984
  0
VERTEX
  8
0
  10
84.965106
  20
160.719025
  42
0.049313
  0
VERTEX
  8
0
  10
84.599129
  20
160.663242
  42
0.055401
  0
VERTEX
  8
0
  10
84.080036
  20
160.467562
  42
0.035386
  0
VERTEX
  8
0
  10
83.337305
  20
160.020401
  0
SEQEND
  0
POLYLINE
  8
0
  66
1
  70
0
  62
7
  0
VERTEX
  8
0
  10
83.337305
  20
160.020401
  42
0.056421
  0
VERTEX
  8
0
  10
82.813549
  20
159.597639
  42
0.037453
  0
VERTEX
  8
0
  10
82.158322
  20
158.826175
  0
VERTEX
  8
0
  10
81.681410
  20
158.150529
  42
-0.012076
  0
VERTEX
  8
0
  10
81.394675
  20
157.768959
  42
-0.018263
  0
VERTEX
  8
0
  10
81.190084
  20
157.528564
  0
SEQEND
  0
POLYLINE
  8
0
  66
1
  70
0
  62
7
  0
VERTEX
  8
0
  10
81.190084
  20
157.528564
  42
-0.021693
  0
VERTEX
  8
0
  10
80.986017
  20
157.322774
  42
-0.012791
  0
VERTEX
  8
0
  10
80.616829
  20
156.998552
  42
0.003705
  0
VERTEX
  8
0
  10
80.156776
  20
156.609107
  42
0.012100
  0
VERTEX
  8
0
  10
80.019716
  20
156.485439
  42
0.029738
  0
VERTEX
  8
0
  10
79.722105
  20
156.167928
  42
0.039296
  0
VERTEX
  8
0
  10
79.531952
  20
155.898764
  42
0.055252
  0
VERTEX
  8
0
  10
79.366618
  20
155.534523
  42
0.056010
  0
VERTEX
  8
0
  10
79.286745
  20
155.148065
  0
SEQEND
  0
POLYLINE
  8
0
  66
1
  70
0
  62
7
  0
VERTEX
  8
0
  10
79.286745
  20
155.148065
  42
0.050029
  0
VERTEX
  8
0
  10
79.360061
  20
153.348623
  42
0.045968
  0
VERTEX
  8
0
  10
79.811621
  20
151.442120
  0
SEQEND
  0
POLYLINE
  8
0
  66
1
  70
0
  62
7
  0
VERTEX
  8
0
  10
79.811621
  20
151.442120
  42
0.072720
  0
VERTEX
  8
0
  10
79.626505
  20
150.964367
  42
0.071043
  0
VERTEX
  8
0
  10
79.583230
  20
150.441824
  42
0.046429
  0
VERTEX
  8
0
  10
79.647571
  20
150.021827
  42
0.032263
  0
VERTEX
  8
0
  10
79.833491
  20
149.440036
  42
0.007538
  0
VERTEX
  8
0
  10
79.914441
  20
149.242478
  42
0.004871
  0
VERTEX
  8
0
  10
80.047250
  20
148.939980
  0
VERTEX
  8
0
  10
80.271634
  20
148.441230
  42
-0.021471
  0
VERTEX
  8
0
  10
80.505158
  20
147.837435
  42
-0.034717
  0
VERTEX
  8
0
  10
80.606888
  20
147.449880
  0
SEQEND
  0
POLYLINE
  8
0
  66
1
  70
0
  62
7
  0
VERTEX
  8
0
  10
80.606888
  20
147.449880
  42
-0.032587
  0
VERTEX
  8
0
  10
80.630090
  20
147.268023
  42
-0.029663
  0
VERTEX
  8
0
  10
80.630581
  20
147.066661
  0
VERTEX
  8
0
  10
80.601586
  20
146.761974
  42
0.038961
  0
VERTEX
  8
0
  10
80.601243
  20
146.608667
  42
0.062600
  0
VERTEX
  8
0
  10
80.620308
  20
146.514944
  42
0.086482
  0
VERTEX
  8
0
  10
80.677690
  20
146.409471
  42
0.068340
  0
VERTEX
  8
0
  10
80.787149
  20
146.304695
  0
SEQEND
  0
POLYLINE
  8
0
  66
1
  70
0
  62
7
  0
VERTEX
  8
0
  10
80.787149
  20
146.304695
  0
VERTEX
  8
0
  10
82.441304
  20
146.304695
  0
SEQEND
  0
POLYLINE
  8
0
  66
1
  70
0
  62
7
  0
VERTEX
  8
0
  10
82.441304
  20
146.304695
  42
0.213909
  0
VERTEX
  8
0
  10
82.572856
  20
146.420364
  42
0.240633
  0
VERTEX
  8
0
  10
82.565896
  20
146.577737
  42
0.169329
  0
VERTEX
  8
0
  10
82.410825
  20
146.713426
  42
0.103942
  0
VERTEX
  8
0
  10
82.086085
  20
146.771252
  0
SEQEND
  0
POLYLINE
  8
0
  66
1
  70
0
  62
7
  0
VERTEX
  8
0
  10
82.086085
  20
146.771252
  42
-0.143669
  0
VERTEX
  8
0
  10
81.715986
  20
146.866056
  42
-0.109351
  0
VERTEX
  8
0
  10
81.353197
  20
147.206744
  42
-0.054242
  0
VERTEX
  8
0
  10
81.144081
  20
147.598237
  42
-0.034179
  0
VERTEX
  8
0
  10
80.926983
  20
148.267017
  42
-0.017502
  0
VERTEX
  8
0
  10
80.818265
  20
148.775706
  42
-0.012647
  0
VERTEX
  8
0
  10
80.710522
  20
149.487338
  0
VERTEX
  8
0
  10
80.606888
  20
150.402972
  0
SEQEND
  0
POLYLINE
  8
0
  66
1
  70
0
  62
7
  0
VERTEX
  8
0
  10
80.606888
  20
150.402972
  42
-0.002038
  0
VERTEX
  8
0
  10
80.842112
  20
150.965948
  42
-0.001315
  0
VERTEX
  8
0
  10
81.212610
  20
151.836232
  0
VERTEX
  8
0
  10
81.845031
  20
153.312565
  0
SEQEND
  0
POLYLINE
  8
0
  66
1
  70
0
  62
7
  0
VERTEX
  8
0
  10
81.845031
  20
153.312565
  42
0.080863
  0
VERTEX
  8
0
  10
82.135140
  20
153.147504
  42
0.065189
  0
VERTEX
  8
0
  10
82.537753
  20
153.055052
  42
0.074818
  0
VERTEX
  8
0
  10
82.961090
  20
153.077864
  42
0.100558
  0
VERTEX
  8
0
  10
83.252477
  20
153.202312
  0
SEQEND
  0
POLYLINE
  8
0
  66
1
  70
0
  62
7
  0
VERTEX
  8
0
  10
83.252477
  20
153.202312
  42
0.033321
  0
VERTEX
  8
0
  10
84.170317
  20
152.873039
  42
0.042384
  0
VERTEX
  8
0
  10
84.923200
  20
152.725814
  42
0.067518
  0
VERTEX
  8
0
  10
85.859591
  20
152.750576
  42
0.079731
  0
VERTEX
  8
0
  10
86.613805
  20
153.000844
  0
SEQEND
  0
POLYLINE
  8
0
  66
1
  70
0
  62
7
  0
VERTEX
  8
0
  10
86.613805
  20
153.000844
  42
0.013559
  0
VERTEX
  8
0
  10
86.693012
  20
152.531814
  42
0.007755
  0
VERTEX
  8
0
  10
86.866303
  20
151.718476
  42
-0.003877
  0
VERTEX
  8
0
  10
87.067960
  20
150.806752
  42
-0.009694
  0
VERTEX
  8
0
  10
87.138682
  20
150.440084
  0
SEQEND
  0
POLYLINE
  8
0
  66
1
  70
0
  62
7
  0
VERTEX
  8
0
  10
87.138682
  20
150.440084
  42
0.177245
  0
VERTEX
  8
0
  10
87.039547
  20
150.312706
  42
0.106145
  0
VERTEX
  8
0
  10
87.013427
  20
150.049740
  42
0.105678
  0
VERTEX
  8
0
  10
87.096897
  20
149.800428
  42
0.182588
  0
VERTEX
  8
0
  10
87.218208
  20
149.703137
  0
SEQEND
  0
POLYLINE
  8
0
  66
1
  70
0
  62
7
  0
VERTEX
  8
0
  10
87.218208
  20
149.703137
  42
0.018434
  0
VERTEX
  8
0
  10
87.220039
  20
149.186359
  42
0.010453
  0
VERTEX
  8
0
  10
87.275865
  20
148.276958
  42
-0.005586
  0
VERTEX
  8
0
  10
87.347733
  20
147.267075
  42
-0.013580
  0
VERTEX
  8
0
  10
87.361356
  20
146.850779
  0
SEQEND
  0
POLYLINE
  8
0
  66
1
  70
0
  62
7
  0
VERTEX
  8
0
  10
87.361356
  20
146.850779
  42
-0.016123
  0
VERTEX
  8
0
  10
87.352577
  20
146.807654
  42
-0.005187
  0
VERTEX
  8
0
  10
87.319605
  20
146.674909
  42
0.021758
  0
VERTEX
  8
0
  10
87.298215
  20
146.574712
  42
0.041727
  0
VERTEX
  8
0
  10
87.293759
  20
146.521406
  42
0.183238
  0
VERTEX
  8
0
  10
87.340816
  20
146.397312
  42
0.119705
  0
VERTEX
  8
0
  10
87.504504
  20
146.283488
  0
SEQEND
  0
POLYLINE
  8
0
  66
1
  70
0
  62
7
  0
VERTEX
  8
0
  10
87.504504
  20
146.283488
  0
VERTEX
  8
0
  10
88.946589
  20
146.283488
  0
SEQEND
  0
POLYLINE
  8
0
  66
1
  70
0
  62
7
  0
VERTEX
  8
0
  10
88.946589
  20
146.283488
  42
0.091120
  0
VERTEX
  8
0
  10
89.105912
  20
146.447625
  42
0.197368
  0
VERTEX
  8
0
  10
89.127429
  20
146.554293
  42
0.157528
  0
VERTEX
  8
0
  10
89.081074
  20
146.638511
  42
0.081717
  0
VERTEX
  8
0
  10
88.930021
  20
146.740104
  42
0.060825
  0
VERTEX
  8
0
  10
88.590230
  20
146.848013
  42
0.065077
  0
VERTEX
  8
0
  10
88.257357
  20
146.866684
  0
SEQEND
  0
POLYLINE
  8
0
  66
1
  70
0
  62
7
  0
VERTEX
  8
0
  10
88.257357
  20
146.866684
  42
-0.085335
  0
VERTEX
  8
0
  10
88.101996
  20
146.884133
  42
-0.096849
  0
VERTEX
  8
0
  10
87.979252
  20
146.947288
  42
-0.078144
  0
VERTEX
  8
0
  10
87.890853
  20
147.042840
  42
-0.058012
  0
VERTEX
  8
0
  10
87.810931
  20
147.198377
  42
-0.062484
  0
VERTEX
  8
0
  10
87.740509
  20
147.493858
  42
-0.035341
  0
VERTEX
  8
0
  10
87.719889
  20
148.029099
  42
-0.016997
  0
VERTEX
  8
0
  10
87.746177
  20
148.425988
  42
-0.011830
  0
VERTEX
  8
0
  10
87.816730
  20
148.993029
  0
VERTEX
  8
0
  10
87.933949
  20
149.724344
  0
SEQEND
  0
POLYLINE
  8
0
  66
1
  70
0
  62
7
  0
VERTEX
  8
0
  10
87.933949
  20
149.724344
  42
0.134831
  0
VERTEX
  8
0
  10
88.094057
  20
150.145052
  42
0.168585
  0
VERTEX
  8
0
  10
88.008174
  20
150.498404
  0
SEQEND
  0
POLYLINE
  8
0
  66
1
  70
0
  62
7
  0
VERTEX
  8
0
  10
88.008174
  20
150.498404
  42
-0.018203
  0
VERTEX
  8
0
  10
88.219983
  20
151.722826
  42
-0.022493
  0
VERTEX
  8
0
  10
88.471417
  20
152.696654
  42
-0.031422
  0
VERTEX
  8
0
  10
88.892176
  20
153.812887
  42
-0.035604
  0
VERTEX
  8
0
  10
89.391938
  20
154.739828
  0
SEQEND
  0
POLYLINE
  8
0
  66
1
  70
0
  62
7
  0
VERTEX
  8
0
  10
89.391938
  20
154.739828
  42
0.086899
  0
VERTEX
  8
0
  10
90.400512
  20
154.434392
  42
0.110738
  0
VERTEX
  8
0
  10
91.227183
  20
154.517236
  42
0.094461
  0
VERTEX
  8
0
  10
91.880307
  20
154.881556
  42
0.076194
  0
VERTEX
  8
0
  10
92.490829
  20
155.575521
  42
0.054526
  0
VERTEX
  8
0
  10
92.876054
  20
156.352107
  42
0.047257
  0
VERTEX
  8
0
  10
93.130190
  20
157.318730
  42
0.045825
  0
VERTEX
  8
0
  10
93.199994
  20
158.299367
  42
0.052525
  0
VERTEX
  8
0
  10
93.092581
  20
159.150909
  0
SEQEND
  0
POLYLINE
  8
0
  66
1
  70
0
  62
7
  0
VERTEX
  8
0
  10
93.092581
  20
159.150909
  42
-0.140656
  0
VERTEX
  8
0
  10
93.081701
  20
159.290164
  42
-0.188161
  0
VERTEX
  8
0
  10
93.139220
  20
159.379217
  42
-0.100072
  0
VERTEX
  8
0
  10
93.233512
  20
159.421990
  42
-0.056656
  0
VERTEX
  8
0
  10
93.414001
  20
159.442507
  42
-0.032672
  0
VERTEX
  8
0
  10
93.574201
  20
159.432028
  42
-0.029394
  0
VERTEX
  8
0
  10
93.749422
  20
159.398436
  42
-0.035306
  0
VERTEX
  8
0
  10
93.910574
  20
159.345253
  42
-0.076496
  0
VERTEX
  8
0
  10
93.977978
  20
159.304661
  0
SEQEND
  0
POLYLINE
  8
0
  66
1
  70
0
  62
7
  0
VERTEX
  8
0
  10
93.977978
  20
159.304661
  42
0.108505
  0
VERTEX
  8
0
  10
94.206318
  20
159.174295
  42
0.161396
  0
VERTEX
  8
0
  10
94.385553
  20
159.177418
  42
0.214787
  0
VERTEX
  8
0
  10
94.507058
  20
159.293042
  42
0.139469
  0
VERTEX
  8
0
  10
94.534665
  20
159.543241
  0
SEQEND
  0
POLYLINE
  8
0
  66
1
  70
0
  62
7
  0
VERTEX
  8
0
  10
94.534665
  20
159.543241
  42
0.034660
  0
VERTEX
  8
0
  10
94.479020
  20
159.863965
  42
0.060474
  0
VERTEX
  8
0
  10
94.412807
  20
160.038874
  42
0.075823
  0
VERTEX
  8
0
  10
94.321488
  20
160.163063
  42
0.074939
  0
VERTEX
  8
0
  10
94.196014
  20
160.255668
  42
0.027102
  0
VERTEX
  8
0
  10
94.173963
  20
160.265834
  42
0.002177
  0
VERTEX
  8
0
  10
93.892736
  20
160.376035
  42
-0.031742
  0
VERTEX
  8
0
  10
93.683828
  20
160.472495
  42
-0.035734
  0
VERTEX
  8
0
  10
93.511422
  20
160.582390
  0
SEQEND
  0
POLYLINE
  8
0
  66
1
  70
0
  62
7
  0
VERTEX
  8
0
  10
93.511422
  20
160.582390
  42
0.076108
  0
VERTEX
  8
0
  10
92.964866
  20
161.051304
  42
0.116232
  0
VERTEX
  8
0
  10
92.514687
  20
161.203361
  42
0.124527
  0
VERTEX
  8
0
  10
92.036184
  20
161.129345
  42
0.084253
  0
VERTEX
  8
0
  10
91.438426
  20
160.746745
  0
SEQEND
  0
ENDSEC
  0
EOF
