  0
SECTION
  2
ENTITIES
  0
POLYLINE
  8
0
  66
1
  70
0
  62
7
  0
VERTEX
  8
0
  10
109.407414
  20
128.866512
  0
VERTEX
  8
0
  10
107.783014
  20
131.006594
  0
SEQEND
  0
POLYLINE
  8
0
  66
1
  70
0
  62
7
  0
VERTEX
  8
0
  10
107.783014
  20
131.006594
  0
VERTEX
  8
0
  10
109.794175
  20
130.697184
  0
SEQEND
  0
POLYLINE
  8
0
  66
1
  70
0
  62
7
  0
VERTEX
  8
0
  10
109.794175
  20
130.697184
  0
VERTEX
  8
0
  10
110.309858
  20
131.212867
  0
SEQEND
  0
POLYLINE
  8
0
  66
1
  70
0
  62
7
  0
VERTEX
  8
0
  10
110.309858
  20
131.212867
  42
-0.073769
  0
VERTEX
  8
0
  10
109.955046
  20
131.441143
  42
-0.091249
  0
VERTEX
  8
0
  10
109.742677
  20
131.709294
  42
-0.088752
  0
VERTEX
  8
0
  10
109.637707
  20
132.036095
  42
-0.068991
  0
VERTEX
  8
0
  10
109.639471
  20
132.476289
  0
SEQEND
  0
POLYLINE
  8
0
  66
1
  70
0
  62
7
  0
VERTEX
  8
0
  10
109.639471
  20
132.476289
  0
VERTEX
  8
0
  10
108.659674
  20
133.095108
  0
SEQEND
  0
POLYLINE
  8
0
  66
1
  70
0
  62
7
  0
VERTEX
  8
0
  10
108.659674
  20
133.095108
  0
VERTEX
  8
0
  10
112.037394
  20
133.507654
  0
SEQEND
  0
POLYLINE
  8
0
  66
1
  70
0
  62
7
  0
VERTEX
  8
0
  10
112.037394
  20
133.507654
  42
0.055788
  0
VERTEX
  8
0
  10
112.163455
  20
132.836106
  42
0.068179
  0
VERTEX
  8
0
  10
112.398494
  20
132.327868
  42
0.072899
  0
VERTEX
  8
0
  10
112.763489
  20
131.907369
  42
0.066410
  0
VERTEX
  8
0
  10
113.275032
  20
131.573844
  0
SEQEND
  0
POLYLINE
  8
0
  66
1
  70
0
  62
7
  0
VERTEX
  8
0
  10
113.275032
  20
131.573844
  0
VERTEX
  8
0
  10
115.208841
  20
132.244232
  0
SEQEND
  0
POLYLINE
  8
0
  66
1
  70
0
  62
7
  0
VERTEX
  8
0
  10
115.208841
  20
132.244232
  42
-0.045741
  0
VERTEX
  8
0
  10
115.956799
  20
132.478529
  42
-0.072113
  0
VERTEX
  8
0
  10
116.454342
  20
132.512500
  42
-0.104126
  0
VERTEX
  8
0
  10
116.911228
  20
132.379483
  42
-0.112110
  0
VERTEX
  8
0
  10
117.245787
  20
132.089527
  0
SEQEND
  0
POLYLINE
  8
0
  66
1
  70
0
  62
7
  0
VERTEX
  8
0
  10
117.245787
  20
132.089527
  0
VERTEX
  8
0
  10
117.916174
  20
131.780117
  0
SEQEND
  0
POLYLINE
  8
0
  66
1
  70
0
  62
7
  0
VERTEX
  8
0
  10
117.916174
  20
131.780117
  0
VERTEX
  8
0
  10
116.910593
  20
131.625413
  0
SEQEND
  0
POLYLINE
  8
0
  66
1
  70
0
  62
7
  0
VERTEX
  8
0
  10
116.910593
  20
131.625413
  42
-0.074186
  0
VERTEX
  8
0
  10
116.623502
  20
131.538760
  42
-0.058202
  0
VERTEX
  8
0
  10
116.242221
  20
131.527791
  0
VERTEX
  8
0
  10
115.907040
  20
131.565605
  42
0.015548
  0
VERTEX
  8
0
  10
115.700786
  20
131.581177
  42
0.020853
  0
VERTEX
  8
0
  10
115.546533
  20
131.581573
  42
0.066086
  0
VERTEX
  8
0
  10
115.124554
  20
131.508652
  42
0.057541
  0
VERTEX
  8
0
  10
114.675554
  20
131.309189
  42
0.050143
  0
VERTEX
  8
0
  10
114.168328
  20
130.936862
  42
0.032031
  0
VERTEX
  8
0
  10
113.481305
  20
130.233070
  0
SEQEND
  0
POLYLINE
  8
0
  66
1
  70
0
  62
7
  0
VERTEX
  8
0
  10
113.481305
  20
130.233070
  42
-0.094061
  0
VERTEX
  8
0
  10
113.627406
  20
129.737446
  42
-0.048625
  0
VERTEX
  8
0
  10
113.629313
  20
128.744330
  42
-0.027690
  0
VERTEX
  8
0
  10
113.477298
  20
127.742690
  42
-0.017481
  0
VERTEX
  8
0
  10
113.094543
  20
126.184963
  0
SEQEND
  0
POLYLINE
  8
0
  66
1
  70
0
  62
7
  0
VERTEX
  8
0
  10
113.094543
  20
126.184963
  42
-0.053251
  0
VERTEX
  8
0
  10
112.607762
  20
126.760021
  42
-0.051296
  0
VERTEX
  8
0
  10
112.237289
  20
127.448688
  42
-0.045659
  0
VERTEX
  8
0
  10
112.005175
  20
128.199598
  42
-0.038447
  0
VERTEX
  8
0
  10
111.882689
  20
129.124353
  0
SEQEND
  0
POLYLINE
  8
0
  66
1
  70
0
  62
7
  0
VERTEX
  8
0
  10
111.882689
  20
129.124353
  42
0.065649
  0
VERTEX
  8
0
  10
111.021490
  20
129.545733
  42
0.107342
  0
VERTEX
  8
0
  10
110.434483
  20
129.610608
  42
0.131545
  0
VERTEX
  8
0
  10
109.903846
  20
129.407608
  42
0.101067
  0
VERTEX
  8
0
  10
109.407414
  20
128.866512
  0
SEQEND
  0
ENDSEC
  0
EOF
